<svg xmlns="http://www.w3.org/2000/svg" width="1924.736" height="510.717" viewBox="0 0 1924.736 510.717">
  <path id="Path_151" data-name="Path 151" d="M2573.411,1114.5c-.257-5.991-.735-11.982-.739-17.973q-.068-232.3-.045-464.6V613.808c-12.142-1.256-23.844-2.913-35.6-3.612-125.163-7.428-250.4-9.615-375.494.054-228.167,17.63-445.744,72.755-647.566,184.081-77.976,43.011-156.448,85.452-240.7,115.627-76.238,27.305-154.647,45.719-235.36,51.246-56.321,3.856-113.091,5.711-169.442,3.325-70.3-2.976-138.33-21.009-205.311-42.266-4.7-1.488-9.648-2.177-14.479-3.241V1114.5Z" transform="translate(-648.675 -603.787)" fill="#008ce3"/>
</svg>
