<svg xmlns="http://www.w3.org/2000/svg" width="817.823" height="646.64" viewBox="0 0 817.823 646.64">
  <g id="Group_188" data-name="Group 188" transform="translate(-982.279 -132.579)">
    <ellipse id="_Path_" data-name="&lt;Path&gt;" cx="384.911" cy="22.479" rx="384.911" ry="22.479" transform="translate(1006.279 710.261)" fill="#274a99" opacity="0.1"/>
    <g id="Background_complete" data-name="Background complete" transform="translate(1283.075 496.777)">
      <path id="Path_1" data-name="Path 1" d="M195.667,284.265c0,11.915,13.346,21.665,29.658,21.665h14.723c16.313,0,29.66-9.75,29.66-21.665Z" transform="translate(-195.667 -284.265)" fill="#e0e0e0"/>
    </g>
    <path id="Path_3" data-name="Path 3" d="M385.021,166.265l-16.9-6.855s-22.309,40.686-28.7,42.738c-8.7,2.8-26.677,10.565-37.363,12.022-1.44,1.684-3.816,6.994-3.589,8.929,14.337,4.78,45.832-1.566,52.572-6.573C366.408,205.111,385.021,166.265,385.021,166.265Z" transform="translate(1159.795 124.579)" fill="#e58a7b"/>
    <g id="Group_2" data-name="Group 2" transform="translate(1513.658 272.176)">
      <path id="Path_4" data-name="Path 4" d="M367.327,161.914c3.144,11.656-13.931,35.069-13.931,35.069L330.964,184.4s4.182-9.624,9.3-19.427C348.533,149.146,363.736,148.612,367.327,161.914Z" transform="translate(-330.964 -152.479)" fill="#407bff"/>
      <path id="Path_5" data-name="Path 5" d="M367.327,161.914c3.144,11.656-13.931,35.069-13.931,35.069L330.964,184.4s4.182-9.624,9.3-19.427C348.533,149.146,363.736,148.612,367.327,161.914Z" transform="translate(-330.964 -152.479)" opacity="0.2"/>
    </g>
    <path id="Path_6" data-name="Path 6" d="M336.212,183.281l8.809,4.939,1.541-27.04C341.449,165.12,337.822,176.977,336.212,183.281Z" transform="translate(1186.391 125.826)" opacity="0.2"/>
    <g id="Group_3" data-name="Group 3" transform="translate(1524.859 268.841)">
      <path id="Path_7" data-name="Path 7" d="M347.977,154.512s-17.416,38.749-7.262,110.91h68.632c1.091-10.536-2.515-61.93,10.556-111.571a174.957,174.957,0,0,0-22.8-2.9c-8.745-.423-21.425-.7-29.176,0A133.119,133.119,0,0,0,347.977,154.512Z" transform="translate(-337.536 -150.522)" fill="#407bff"/>
      <path id="Path_8" data-name="Path 8" d="M347.977,154.512s-17.416,38.749-7.262,110.91h68.632c1.091-10.536-2.515-61.93,10.556-111.571a174.957,174.957,0,0,0-22.8-2.9c-8.745-.423-21.425-.7-29.176,0A133.119,133.119,0,0,0,347.977,154.512Z" transform="translate(-337.536 -150.522)" opacity="0.2"/>
    </g>
    <rect id="Rectangle_1" data-name="Rectangle 1" width="13.089" height="29.132" transform="translate(1554.629 681.943) rotate(-21.073)" fill="#e58a7b"/>
    <path id="Path_10" data-name="Path 10" d="M400.3,421.734H387.467l-4.707-29.715h12.832Z" transform="translate(1219.173 288.402)" fill="#e58a7b"/>
    <path id="Path_11" data-name="Path 11" d="M393.561,408.582h14.417a1.042,1.042,0,0,1,1.041.876l1.864,11.407a2.014,2.014,0,0,1-2.011,2.282c-5.028-.087-7.456-.382-13.8-.382-3.9,0-11.959.406-17.344.406-5.268,0-5.778-5.326-3.545-5.808,10.014-2.163,13.914-5.145,17.246-7.991A3.288,3.288,0,0,1,393.561,408.582Z" transform="translate(1212.255 300.068)" fill="#263238"/>
    <path id="Path_12" data-name="Path 12" d="M371.245,407.607l13.672-3.974a1.062,1.062,0,0,1,1.265.532l5.065,10.219a1.959,1.959,0,0,1-1.282,2.711c-4.951,1.352-8.279,2.2-14.478,4-4.283,1.244-8.639,3.272-12.871,4.62-2.93.934-9.81.973-13.374.973-5.268,0-6.442-5.556-4.186-5.808,5.714-.642,6.481-.344,9.636-1.926,5.215-2.616,9.249-4.784,13.764-9.512A6.424,6.424,0,0,1,371.245,407.607Z" transform="translate(1191.852 296.55)" fill="#263238"/>
    <path id="Path_13" data-name="Path 13" d="M310.07,193.924l-14.12-5.941-5.813,15.644a58.193,58.193,0,0,0,17.455,0Z" transform="translate(1153.94 144.702)" fill="#e58a7b"/>
    <path id="Path_14" data-name="Path 14" d="M287.544,187.758l-.372,10.407,5.054,5.619,5.813-15.642Z" transform="translate(1151.853 144.544)" fill="#e58a7b"/>
    <g id="Group_4" data-name="Group 4" transform="translate(1554.625 677.242)">
      <rect id="Rectangle_2" data-name="Rectangle 2" width="13.094" height="15.016" transform="translate(0.001 4.715) rotate(-21.105)" fill="#cf6f64"/>
      <path id="Path_15" data-name="Path 15" d="M395.6,392.023H382.759l2.433,15.317h12.837Z" transform="translate(-335.452 -388.836)" fill="#cf6f64"/>
    </g>
    <path id="Path_16" data-name="Path 16" d="M338.123,227.606c.245,3.083.544,6.234.912,9.474l51.033-16.567A36.565,36.565,0,0,0,409.7,206.275c.193-4.554.455-9.334.84-14.326.176-2.435.385-4.922.614-7.444.245-2.626.525-5.305.84-8Z" transform="translate(1187.736 136.616)" opacity="0.2"/>
    <path id="Path_17" data-name="Path 17" d="M348.618,180l-1.738-.208c1.012-8.5,7.362-15.224,14.067-15.066l-.051,1.752C355.107,166.312,349.529,172.374,348.618,180Z" transform="translate(1193.904 128.322)" fill="#fff"/>
    <path id="Path_18" data-name="Path 18" d="M353.347,189.235c-.1,0-.193,0-.288,0l.051-1.752c5.861.215,11.368-5.893,12.279-13.522l1.737.208C366.128,182.548,359.98,189.235,353.347,189.235Z" transform="translate(1198.256 134.825)" fill="#fff"/>
    <path id="Path_19" data-name="Path 19" d="M384.52,131.5c-2.391,9.387-5.236,26.587.965,32.852,0,0-4.331,9.522-21.774,9.522-15.939,0-7.4-9.522-7.4-9.522,10.614-2.5,10.8-10.265,9.4-17.559Z" transform="translate(1198.937 104.92)" fill="#e58a7b"/>
    <path id="Path_20" data-name="Path 20" d="M372.019,135.158,360.888,144.2a29.4,29.4,0,0,1,.6,5.179c3.253,3.24,9.783-4.968,10.452-9.155A14.029,14.029,0,0,0,372.019,135.158Z" transform="translate(1203.77 107.499)" fill="#cf6f64"/>
    <path id="Path_21" data-name="Path 21" d="M349.985,134.98a11.183,11.183,0,0,0,7.23,5.345c4.092.912,6.149-2.853,5.021-6.642-1.016-3.409-4.368-7.993-8.48-7.207A5.682,5.682,0,0,0,349.985,134.98Z" transform="translate(1195.543 101.32)" fill="#cf6f64"/>
    <path id="Path_22" data-name="Path 22" d="M356,114.011c-6.374,2.921-8.62,28.243-.607,31.986S368.076,108.481,356,114.011Z" transform="translate(1196.278 92.245)" fill="#263238"/>
    <path id="Path_23" data-name="Path 23" d="M388.373,130.923c-1.525,12.712-1.776,20.191-8.578,26.715-10.233,9.813-25.581,3.993-27.87-8.7-2.06-11.42.782-30.289,13.52-35.347C378,108.612,389.9,118.212,388.373,130.923Z" transform="translate(1197.027 91.368)" fill="#e58a7b"/>
    <path id="Path_24" data-name="Path 24" d="M371.442,131.824c9.428-2.412,16.366-4.055,13.89,3.816-3.3,10.485-7.255,20.642-1.948,21.114,3.228.288,17.546-5.786,15.727-11.93-1.583-5.352,5.072-6.8,6.3-9.524,4.419-9.827-8.208-8.55-5.96-14.5,2.188-5.789-10.173-15.576-17.022-10.795-11.086,7.739-30.139,7.628-20.123-5.065,7.173-9.091-5.626-7.224-5.626-7.224s7.731,4.586-5.282,11.676C337.6,116.911,350.23,137.25,371.442,131.824Z" transform="translate(1193.021 81.02)" fill="#263238"/>
    <path id="Path_25" data-name="Path 25" d="M381.19,134.98a13.089,13.089,0,0,1-7.858,5.345c-4.2.912-5.813-2.853-4.24-6.642,1.415-3.409,5.305-7.993,9.324-7.207C382.376,127.251,383.446,131.64,381.19,134.98Z" transform="translate(1209.131 101.32)" fill="#e58a7b"/>
    <path id="Path_26" data-name="Path 26" d="M344.54,217.94s-11.521,103.1-12.419,142.235c-.934,40.7,39.042,167.692,39.042,167.692l20.47-8.6S367.8,403.254,371.11,363.282c3.608-43.579,18.544-145.342,18.544-145.342Z" transform="translate(1183.498 165.801)" fill="#407bff"/>
    <path id="Path_27" data-name="Path 27" d="M358.149,236.258c-9.178,19.056-2.994,56.727,1.979,79.057,1.892-15.763,4.133-32.874,6.27-48.705C366.188,242.266,364.3,223.474,358.149,236.258Z" transform="translate(1198.518 175.793)" opacity="0.2"/>
    <path id="Path_28" data-name="Path 28" d="M376.773,390.826c.1-.041,2.427,6.522,2.427,6.522l-23.594,9.909-3.717-6.911Z" transform="translate(1197.433 287.563)" fill="#407bff"/>
    <path id="Path_29" data-name="Path 29" d="M353.686,217.94S362.5,316,368.339,352.739c6.4,40.23,31.521,174.24,31.521,174.24h23.5s-14.081-130.762-16.741-170.592c-2.887-43.231-8.649-138.446-8.649-138.446Z" transform="translate(1198.697 165.801)" fill="#407bff"/>
    <path id="Path_30" data-name="Path 30" d="M405.892,396.077c.1,0,.786,6.568.786,6.568H380.846L379,395.106Z" transform="translate(1216.526 290.577)" fill="#407bff"/>
    <path id="Path_31" data-name="Path 31" d="M399.123,507.354a.218.218,0,0,1-.216-.194c-.128-1.188-12.828-119.244-15.218-155.031-2.592-38.836-7.806-124.945-7.859-125.811a.22.22,0,0,1,.206-.232h.014a.22.22,0,0,1,.218.206c.051.864,5.264,86.973,7.858,125.806,2.388,35.78,15.085,153.827,15.214,155.014a.216.216,0,0,1-.194.24Z" transform="translate(1214.292 171.539)" opacity="0.2"/>
    <path id="Path_32" data-name="Path 32" d="M362.638,126.068c-.061,1.035-.658,1.873-1.334,1.873s-1.176-.838-1.115-1.873.658-1.875,1.334-1.875S362.7,125.033,362.638,126.068Z" transform="translate(1203.273 99.776)" fill="#263238"/>
    <path id="Path_33" data-name="Path 33" d="M355.775,126.068c-.061,1.035-.658,1.873-1.334,1.873s-1.176-.838-1.116-1.873.66-1.875,1.336-1.875S355.835,125.033,355.775,126.068Z" transform="translate(1198.438 99.776)" fill="#263238"/>
    <path id="Path_34" data-name="Path 34" d="M359.181,125.6s-2.7,5.972-5.462,8.852c1.73,1.709,4.89.927,4.89.927Z" transform="translate(1198.721 100.763)" fill="#df5753"/>
    <path id="Path_35" data-name="Path 35" d="M357.217,135.514a.284.284,0,0,1-.286-.3.328.328,0,0,1,.322-.305,8.767,8.767,0,0,0,6.872-3.206.314.314,0,0,1,.426-.087.3.3,0,0,1,.063.419A9.29,9.29,0,0,1,357.217,135.514Z" transform="translate(1200.982 104.966)" fill="#263238"/>
    <path id="Path_36" data-name="Path 36" d="M365.208,124.288a.6.6,0,0,1-.537-.046,4.8,4.8,0,0,0-4.341-.453.585.585,0,0,1-.794-.285.637.637,0,0,1,.332-.811,5.985,5.985,0,0,1,5.495.51.592.592,0,0,1,.155.835A.669.669,0,0,1,365.208,124.288Z" transform="translate(1202.784 98.409)" fill="#263238"/>
    <path id="Path_37" data-name="Path 37" d="M352.275,122.745a.546.546,0,0,1-.232-.131.6.6,0,0,1,0-.857,6.338,6.338,0,0,1,5.253-2.113.565.565,0,0,1,.47.692.649.649,0,0,1-.717.511h0a5.07,5.07,0,0,0-4.145,1.718A.632.632,0,0,1,352.275,122.745Z" transform="translate(1197.415 96.551)" fill="#263238"/>
    <path id="Path_38" data-name="Path 38" d="M422.778,164.267l-17.73-4.719s-17.385,42.79-23.524,45.585c-8.356,3.8-29.515,16.953-38.5,23.293-.5,2.12-.107,7.773,1.024,9.311,15.289-2.778,44.7-14.086,50.837-19.833C408.866,204.8,422.778,164.267,422.778,164.267Z" transform="translate(1191.035 124.676)" fill="#e58a7b"/>
    <path id="Path_39" data-name="Path 39" d="M383.7,411.24a3.733,3.733,0,0,1-2.432-.653,1.735,1.735,0,0,1-.533-1.607,1.037,1.037,0,0,1,.571-.861c1.447-.726,5.45,1.815,5.9,2.106a.3.3,0,0,1,.121.308.331.331,0,0,1-.244.245A15.516,15.516,0,0,1,383.7,411.24Zm-1.75-2.655a.89.89,0,0,0-.4.077.394.394,0,0,0-.211.356,1.176,1.176,0,0,0,.346,1.1c.666.59,2.338.67,4.542.23A11.556,11.556,0,0,0,381.954,408.585Z" transform="translate(1217.736 299.651)" fill="#263238"/>
    <path id="Path_40" data-name="Path 40" d="M385.866,412.033a.3.3,0,0,1-.143-.036c-1.287-.721-3.688-3.533-3.332-4.965a1.065,1.065,0,0,1,1.014-.8,1.588,1.588,0,0,1,1.271.39c1.42,1.219,1.508,4.922,1.512,5.079a.324.324,0,0,1-.155.278A.313.313,0,0,1,385.866,412.033Zm-2.284-5.2c-.046,0-.092.005-.14.009-.4.048-.443.23-.462.307-.21.845,1.3,2.97,2.562,3.973-.085-1.084-.368-3.242-1.278-4.022A1.013,1.013,0,0,0,383.582,406.831Z" transform="translate(1218.889 298.407)" fill="#263238"/>
    <path id="Path_41" data-name="Path 41" d="M357.591,409.786a4.856,4.856,0,0,1-3.214-.02,1.584,1.584,0,0,1-.83-1.3,1.016,1.016,0,0,1,.348-.9c1.374-1.222,6.933.092,7.562.245a.282.282,0,0,1,.216.266.33.33,0,0,1-.191.307A23.208,23.208,0,0,1,357.591,409.786Zm-2.771-2.025a1.278,1.278,0,0,0-.539.244.384.384,0,0,0-.129.361,1.036,1.036,0,0,0,.54.862c.905.491,3.006.1,5.711-1.031A16.507,16.507,0,0,0,354.82,407.761Z" transform="translate(1198.595 298.985)" fill="#263238"/>
    <path id="Path_42" data-name="Path 42" d="M360.372,409.888a.32.32,0,0,1-.128,0c-1.651-.3-5.179-2.265-5.212-3.732-.007-.342.153-.813.961-1.094a2.177,2.177,0,0,1,1.755.1c1.851.913,2.819,4.186,2.86,4.325a.318.318,0,0,1-.073.3A.325.325,0,0,1,360.372,409.888Zm-4.031-4.305c-.058.015-.118.034-.177.053-.528.186-.525.4-.523.474.02.879,2.471,2.5,4.2,3.044-.344-.941-1.173-2.839-2.386-3.438A1.588,1.588,0,0,0,356.342,405.583Z" transform="translate(1199.646 297.494)" fill="#263238"/>
    <path id="Path_43" data-name="Path 43" d="M351.974,199.373,334.2,207.554l-2.062,5.014,6.57,4.419s12.257-1.334,15.749-9.21Z" transform="translate(1183.523 152.724)" fill="#e58a7b"/>
    <path id="Path_44" data-name="Path 44" d="M345.587,210.45c-1.111-6.6-3.282-9.614-3.3-9.645l2.8-2.1c.109.145,2.684,3.623,3.956,11.163Z" transform="translate(1190.667 152.253)" fill="#263238"/>
    <path id="Path_45" data-name="Path 45" d="M348.641,201.458a3.415,3.415,0,1,1-4.155-1.324A3.112,3.112,0,0,1,348.641,201.458Z" transform="translate(1190.64 153.056)" fill="#263238"/>
    <path id="Path_46" data-name="Path 46" d="M326.3,210.778l2.361,2.391,15.947-6.821-6.3-2.175Z" transform="translate(1179.412 156.105)" fill="#e58a7b"/>
    <path id="Path_47" data-name="Path 47" d="M376.773,390.826c.1-.041,2.427,6.522,2.427,6.522l-23.594,9.909-3.717-6.911Z" transform="translate(1197.433 287.563)" opacity="0.2"/>
    <path id="Path_48" data-name="Path 48" d="M405.892,396.077c.1,0,.786,6.568.786,6.568H380.846L379,395.106Z" transform="translate(1216.526 290.577)" opacity="0.2"/>
    <g id="Group_5" data-name="Group 5" transform="translate(1579.563 271.909)">
      <path id="Path_49" data-name="Path 49" d="M408.5,164.453c4.69,15.11-13.564,35.756-13.564,35.756l-25.305-10.328a259.592,259.592,0,0,1,10.35-25.689C387.7,147.474,403.771,149.2,408.5,164.453Z" transform="translate(-369.635 -152.322)" fill="#407bff"/>
      <path id="Path_50" data-name="Path 50" d="M408.5,164.453c4.69,15.11-13.564,35.756-13.564,35.756l-25.305-10.328a259.592,259.592,0,0,1,10.35-25.689C387.7,147.474,403.771,149.2,408.5,164.453Z" transform="translate(-369.635 -152.322)" opacity="0.2"/>
    </g>
    <g id="Screen" transform="translate(1272.708 132.579)">
      <rect id="Rectangle_3" data-name="Rectangle 3" width="10.886" height="1.751" transform="translate(83.344 0)" fill="#407bff"/>
      <rect id="Rectangle_4" data-name="Rectangle 4" width="29.274" height="1.75" transform="translate(233.902 98.718) rotate(-87.421)" fill="#407bff"/>
      <path id="Path_51" data-name="Path 51" d="M419.118,75.194h-207L192.846,493.97h207Z" transform="translate(-187.287 -67.313)" fill="#407bff"/>
      <path id="Path_52" data-name="Path 52" d="M412.931,78.566h-201.1L193.107,497.342h201.1Z" transform="translate(-187.104 -64.938)" fill="#fafafa" opacity="0.56"/>
      <path id="Path_53" data-name="Path 53" d="M409.408,81.937H208.3L189.584,500.714h201.1Z" transform="translate(-189.584 -62.563)" fill="#407bff" opacity="0.07"/>
      <path id="Path_54" data-name="Path 54" d="M376.662,189.106H205.011l-1.433,32.051H375.23Z" transform="translate(-179.729 12.914)" fill="#fff"/>
      <path id="Path_55" data-name="Path 55" d="M298.662,175.39H205.3l-.641,14.34h93.366Z" transform="translate(-178.97 3.254)" fill="#407bff"/>
      <path id="Path_56" data-name="Path 56" d="M374.394,239.849H202.742L201.31,271.9H372.961Z" transform="translate(-181.327 48.652)" fill="#fff"/>
      <path id="Path_57" data-name="Path 57" d="M332.808,284.036H217.379l-1.717,38.412H331.091Z" transform="translate(-171.218 79.772)" fill="#407bff" opacity="0.47"/>
      <path id="Path_58" data-name="Path 58" d="M327.652,326.11H212.222a.211.211,0,0,1-.147-.065.2.2,0,0,1-.055-.148l1.718-38.413a.2.2,0,0,1,.2-.2H329.368a.2.2,0,0,1,.147.065.193.193,0,0,1,.056.148l-1.718,38.413A.2.2,0,0,1,327.652,326.11ZM212.435,325.7H327.458l1.7-38.007H214.133Z" transform="translate(-173.783 82.063)" fill="#fff"/>
      <path id="Path_59" data-name="Path 59" d="M280.086,226.134H203.028l-.641,14.34h77.058Z" transform="translate(-180.568 38.992)" fill="#407bff"/>
      <path id="Path_60" data-name="Path 60" d="M319.2,146.422a45.12,45.12,0,0,1-9.484,25.656,45.84,45.84,0,0,1-36.129,18,41.413,41.413,0,0,1-41.692-43.66c1.079-24.116,21.5-43.662,45.595-43.662A41.388,41.388,0,0,1,319.2,146.422Z" transform="translate(-159.815 -47.898)" fill="#fff"/>
      <path id="Path_61" data-name="Path 61" d="M295.107,112.917a11.994,11.994,0,0,1-2.519,6.817,12.183,12.183,0,0,1-9.6,4.784,11,11,0,0,1-11.08-11.6,12.25,12.25,0,0,1,12.116-11.6A11,11,0,0,1,295.107,112.917Z" transform="translate(-131.614 -48.915)" fill="#407bff"/>
      <path id="Path_62" data-name="Path 62" d="M219.512,200.631a5.422,5.422,0,0,1-5.365,5.135,4.869,4.869,0,0,1-4.907-5.135,5.424,5.424,0,0,1,5.365-5.135A4.867,4.867,0,0,1,219.512,200.631Z" transform="translate(-175.745 17.414)" fill="#263238"/>
      <path id="Path_63" data-name="Path 63" d="M233,200.631a5.421,5.421,0,0,1-5.365,5.135,4.867,4.867,0,0,1-4.9-5.135,5.421,5.421,0,0,1,5.365-5.135A4.867,4.867,0,0,1,233,200.631Z" transform="translate(-166.245 17.414)" fill="#263238"/>
      <path id="Path_64" data-name="Path 64" d="M246.487,200.631a5.424,5.424,0,0,1-5.365,5.135,4.867,4.867,0,0,1-4.907-5.135,5.422,5.422,0,0,1,5.365-5.135A4.869,4.869,0,0,1,246.487,200.631Z" transform="translate(-156.747 17.414)" fill="#263238"/>
      <path id="Path_65" data-name="Path 65" d="M217.244,251.374a5.424,5.424,0,0,1-5.365,5.137,4.868,4.868,0,0,1-4.907-5.137,5.422,5.422,0,0,1,5.365-5.135A4.869,4.869,0,0,1,217.244,251.374Z" transform="translate(-177.342 53.152)" fill="#263238"/>
      <path id="Path_66" data-name="Path 66" d="M230.731,251.374a5.423,5.423,0,0,1-5.365,5.137,4.87,4.87,0,0,1-4.907-5.137,5.424,5.424,0,0,1,5.365-5.135A4.868,4.868,0,0,1,230.731,251.374Z" transform="translate(-167.843 53.152)" fill="#263238"/>
      <path id="Path_67" data-name="Path 67" d="M244.218,251.374a5.423,5.423,0,0,1-5.365,5.137,4.87,4.87,0,0,1-4.907-5.137,5.424,5.424,0,0,1,5.367-5.135A4.867,4.867,0,0,1,244.218,251.374Z" transform="translate(-158.345 53.152)" fill="#263238"/>
      <path id="Path_68" data-name="Path 68" d="M257.706,251.374a5.424,5.424,0,0,1-5.367,5.137,4.867,4.867,0,0,1-4.9-5.137,5.422,5.422,0,0,1,5.365-5.135A4.869,4.869,0,0,1,257.706,251.374Z" transform="translate(-148.845 53.152)" fill="#263238"/>
      <path id="Path_69" data-name="Path 69" d="M271.193,251.374a5.424,5.424,0,0,1-5.365,5.137,4.869,4.869,0,0,1-4.907-5.137,5.422,5.422,0,0,1,5.365-5.135A4.869,4.869,0,0,1,271.193,251.374Z" transform="translate(-139.346 53.152)" fill="#263238"/>
      <g id="Group_7" data-name="Group 7" transform="translate(79.271 58.958)">
        <ellipse id="Ellipse_2" data-name="Ellipse 2" cx="18.058" cy="17.268" rx="18.058" ry="17.268" transform="matrix(0.715, -0.699, 0.699, 0.715, 12.132, 25.249)" fill="#407bff"/>
        <path id="Path_70" data-name="Path 70" d="M306.729,149.056a45.84,45.84,0,0,1-36.129,18,41.409,41.409,0,0,1-34.5-18c8.286-8.249,21.4-13.607,35.916-13.607C286.549,135.449,299.183,140.807,306.729,149.056Z" transform="translate(-236.097 -83.834)" fill="#407bff"/>
        <ellipse id="Ellipse_3" data-name="Ellipse 3" cx="18.058" cy="17.268" rx="18.058" ry="17.268" transform="matrix(0.715, -0.699, 0.699, 0.715, 12.132, 25.249)" fill="#fff" opacity="0.1"/>
        <path id="Path_71" data-name="Path 71" d="M306.729,149.056a45.84,45.84,0,0,1-36.129,18,41.409,41.409,0,0,1-34.5-18c8.286-8.249,21.4-13.607,35.916-13.607C286.549,135.449,299.183,140.807,306.729,149.056Z" transform="translate(-236.097 -83.834)" fill="#fff" opacity="0.1"/>
      </g>
    </g>
    <path id="Path_72" data-name="Path 72" d="M141.921,214.94c-1.614,3.54-3.311,7.434-4.8,11.233-1.5,3.835-3,7.674-4.31,11.565-2.539,7.783-4.92,15.642-6.091,23.519l-.389,2.51a3.828,3.828,0,0,0,.124,1.27,13.065,13.065,0,0,0,1.873,3.952,49.6,49.6,0,0,0,7.572,8.489,115.579,115.579,0,0,0,9.408,7.867c3.271,2.515,6.72,4.978,10.094,7.284l-3.175,5.982a120.9,120.9,0,0,1-22.975-13.1,54.907,54.907,0,0,1-10.294-9.677,24.2,24.2,0,0,1-4.075-7.282,16.3,16.3,0,0,1-.821-5.019c.01-.421.034-1.012.063-1.3l.083-.847.17-1.692a132.628,132.628,0,0,1,5.564-26.14c1.329-4.206,2.749-8.37,4.368-12.457,1.651-4.112,3.284-8.06,5.351-12.2Z" transform="translate(1029.931 159.433)" fill="#e58a7b"/>
    <path id="Path_73" data-name="Path 73" d="M138.23,259.957l12.042-6.11-3.112,13.237s-8.269,2.309-12.114-1.7Z" transform="translate(1044.713 191.09)" fill="#e58a7b"/>
    <path id="Path_74" data-name="Path 74" d="M156.295,256.02l-3.2,10.941-10.936.123,3.111-13.236Z" transform="translate(1049.72 191.09)" fill="#e58a7b"/>
    <path id="Path_75" data-name="Path 75" d="M160.432,175a34,34,0,0,0,2.7,6.739,2.762,2.762,0,0,1-2.7.866Z" transform="translate(1062.592 135.56)" fill="#df5753"/>
    <ellipse id="Ellipse_4" data-name="Ellipse 4" cx="1.277" cy="1.953" rx="1.277" ry="1.953" transform="translate(1221.392 306.756)" fill="#263238"/>
    <path id="Path_76" data-name="Path 76" d="M160.04,173.111l2.59-.746S161.3,174.388,160.04,173.111Z" transform="translate(1062.316 133.703)" fill="#263238"/>
    <path id="Path_77" data-name="Path 77" d="M141.907,182.336c1.554,7.933,3.107,22.471-2.444,27.765,0,0,2.17,8.049,16.912,8.049,16.211,0,7.748-8.048,7.748-8.048-8.849-2.113-8.62-8.677-7.078-14.843Z" transform="translate(1047.824 140.725)" fill="#e58a7b"/>
    <path id="Path_78" data-name="Path 78" d="M138.388,179.781c.813,13.246.874,18.868,7.564,25.667,10.062,10.226,26.152,6.33,29.314-6.89,2.844-11.9,1.036-31.562-11.928-36.833A18.1,18.1,0,0,0,138.388,179.781Z" transform="translate(1047.042 125.224)" fill="#e58a7b"/>
    <path id="Path_79" data-name="Path 79" d="M144.929,163.2c-6.642,2.422-15.5.62-12.025,21.121,3.681,21.706-1.985,28.847-1.985,28.847s25.208,5.372,50.945-.32c0,0-7.857-13.742-5.653-23.766,2.812-12.787.585-17.513.585-17.513S154.268,159.8,144.929,163.2Z" transform="translate(1041.806 126.815)" fill="#263238"/>
    <path id="Path_80" data-name="Path 80" d="M155.64,177.322a13.36,13.36,0,0,0,2.086,7.105c1.8,2.763,3.927,1.638,4.458-1.23.481-2.58.124-7.127-2.175-8.89C157.747,172.569,155.673,174.323,155.64,177.322Z" transform="translate(1059.217 134.586)" fill="#e58a7b"/>
    <path id="Path_81" data-name="Path 81" d="M135.858,168.848c-1.917-5.36,7.19-13.6,26.444-10.176s20.1,19.444,20.1,19.444l-3.9-4.624.174,4.867-19.787,3.8Z" transform="translate(1045.108 123.49)" fill="#263238"/>
    <g id="Group_8" data-name="Group 8" transform="translate(1182.559 345.984)">
      <path id="Path_82" data-name="Path 82" d="M136.728,201.53h0a3,3,0,0,1,2.471-3.449c6-.99,19.623-3,26.483-2.045,5.1.706,6.442,3.681,6.659,6.115a3.006,3.006,0,0,1-3.143,3.243l-29.636-1.338A3.01,3.01,0,0,1,136.728,201.53Z" transform="translate(-136.689 -195.786)" fill="#407bff"/>
      <path id="Path_83" data-name="Path 83" d="M136.728,201.53h0a3,3,0,0,1,2.471-3.449c6-.99,19.623-3,26.483-2.045,5.1.706,6.442,3.681,6.659,6.115a3.006,3.006,0,0,1-3.143,3.243l-29.636-1.338A3.01,3.01,0,0,1,136.728,201.53Z" transform="translate(-136.689 -195.786)" opacity="0.6"/>
    </g>
    <path id="Path_84" data-name="Path 84" d="M146.76,384.162l10.983,7.625,18.392-24.926-10.983-7.625Z" transform="translate(1052.964 265.314)" fill="#e58a7b"/>
    <path id="Path_85" data-name="Path 85" d="M131.715,384.46l11.619,6.616,16.279-26.363L147.994,358.1Z" transform="translate(1042.367 264.513)" fill="#e58a7b"/>
    <g id="Group_9" data-name="Group 9" transform="translate(1181.958 622.616)">
      <path id="Path_86" data-name="Path 86" d="M172.45,366.866l-9.478,12.85-10.988-7.629,9.478-12.849Z" transform="translate(-125.315 -357.301)" fill="#cf6f64"/>
      <path id="Path_87" data-name="Path 87" d="M144.733,358.1l11.624,6.619-8.4,13.585-11.624-6.619Z" transform="translate(-136.335 -358.102)" fill="#cf6f64"/>
    </g>
    <g id="Group_10" data-name="Group 10" transform="translate(1166.063 434.951)">
      <path id="Path_88" data-name="Path 88" d="M169.938,247.988s42.914,54.086,34.863,105.806c-6.5,41.775-44.161,98.343-44.161,98.343l-17.709-8.8s19.24-37.593,31.874-77.445c5.3-16.712,3.04-35.125-6.865-49.59C146.2,284.55,111.373,303.44,134.8,247.988Z" transform="translate(-127.01 -247.988)" fill="#407bff"/>
      <path id="Path_89" data-name="Path 89" d="M169.938,247.988s42.914,54.086,34.863,105.806c-6.5,41.775-44.161,98.343-44.161,98.343l-17.709-8.8s19.24-37.593,31.874-77.445c5.3-16.712,3.04-35.125-6.865-49.59C146.2,284.55,111.373,303.44,134.8,247.988Z" transform="translate(-127.01 -247.988)" opacity="0.6"/>
    </g>
    <path id="Path_90" data-name="Path 90" d="M167.125,270.942l-6.234-6.2c0,.489,12.083,75.079,15.482,96.043a127.811,127.811,0,0,0,4.571-18.793C184.884,316.669,176.6,290.768,167.125,270.942Z" transform="translate(1062.916 198.764)" opacity="0.4"/>
    <g id="Group_11" data-name="Group 11" transform="translate(1177.89 434.951)">
      <path id="Path_91" data-name="Path 91" d="M184.217,247.988s51.672,67.967,53.126,108.725c1.217,34.152-56.286,100.118-56.286,100.118l-16.693-10.8s33.624-46.9,42.089-85.233c-3.228-37.946-72.5-112.812-72.5-112.812Z" transform="translate(-133.949 -247.988)" fill="#407bff"/>
      <path id="Path_92" data-name="Path 92" d="M184.217,247.988s51.672,67.967,53.126,108.725c1.217,34.152-56.286,100.118-56.286,100.118l-16.693-10.8s33.624-46.9,42.089-85.233c-3.228-37.946-72.5-112.812-72.5-112.812Z" transform="translate(-133.949 -247.988)" opacity="0.6"/>
    </g>
    <path id="Path_93" data-name="Path 93" d="M130.405,200.506c-5.536,1.305-10.822,21.394-10.822,21.394l21.58,14.406s7.192-15.877,4.682-22.832C143.23,206.231,137.393,198.858,130.405,200.506Z" transform="translate(1033.823 153.358)" fill="#407bff"/>
    <path id="Path_94" data-name="Path 94" d="M129.034,207.994l-1.507,17.5,8.034,5.377s3.765-8.319,4.886-15.569Z" transform="translate(1039.418 158.796)" opacity="0.2"/>
    <path id="Path_95" data-name="Path 95" d="M196.252,202.237s6.371,2.245-6.389,80.7h-54.3c.912-22.1.937-35.729-9.626-81.087a160.392,160.392,0,0,1,23.059-3.039c9.138-.44,16.625-.731,24.659,0C184.242,199.779,196.252,202.237,196.252,202.237Z" transform="translate(1038.295 152.015)" fill="#407bff"/>
    <path id="Path_96" data-name="Path 96" d="M175.8,210.223c1.23,3.4,2.533,7.076,3.887,10.609q1.948,5.376,4.043,10.723l4.179,10.706,1.057,2.674.53,1.338.266.668c.046.121.037.111.02.1a3.745,3.745,0,0,0-1.193-1.064,4.752,4.752,0,0,0-2.226-.649,4.4,4.4,0,0,0-1.9.343c-.769.368-.781.525-.764.5a2.211,2.211,0,0,0,.382-.387,24.378,24.378,0,0,0,2.435-3.971c.806-1.563,1.568-3.233,2.326-4.927,1.508-3.4,2.88-6.94,4.276-10.492,1.38-3.56,2.681-7.173,3.969-10.8l3.881-10.878,6.567,1.657c-1.3,7.78-2.979,15.4-4.982,23.047-.978,3.831-2.11,7.632-3.4,11.466-.644,1.921-1.367,3.836-2.193,5.79a35.59,35.59,0,0,1-3.24,6.164,15.144,15.144,0,0,1-1.486,1.839,9.5,9.5,0,0,1-3.105,2.193,7.694,7.694,0,0,1-3.308.619,7.6,7.6,0,0,1-3.6-1.084,9.014,9.014,0,0,1-3.1-3.219c-.261-.431-.481-.879-.634-1.2l-.324-.661-.646-1.323-1.29-2.647c-1.682-3.547-3.332-7.112-4.9-10.717q-2.321-5.422-4.518-10.909c-1.4-3.717-2.785-7.318-4.015-11.272Z" transform="translate(1064.262 156.488)" fill="#e58a7b"/>
    <path id="Path_97" data-name="Path 97" d="M173.766,200.848c6.527,1.556,13.861,20.84,13.861,20.84l-19.4,16.53s-12.571-21.029-10.028-27.972C160.849,203.015,165.239,198.817,173.766,200.848Z" transform="translate(1060.781 153.403)" fill="#407bff"/>
    <path id="Path_98" data-name="Path 98" d="M188.286,203.542l6.807-5.694,4.736,7.378-3.489,6.161s-5.556,5.086-10.476,2.5h0A8.841,8.841,0,0,1,188.286,203.542Z" transform="translate(1079.977 151.65)" fill="#e58a7b"/>
    <path id="Path_99" data-name="Path 99" d="M203.329,197.866l-.51,1.855-10.785,1.812-1.063-3.685Z" transform="translate(1084.1 151.65)" fill="#e58a7b"/>
    <path id="Path_100" data-name="Path 100" d="M170.443,378.76l-19.46-12.589,3.484-6.06,21.872,13.445Z" transform="translate(1055.938 265.931)" fill="#2062f8"/>
    <path id="Path_101" data-name="Path 101" d="M145.041,378.225a11.668,11.668,0,0,1-4.818-1.668.313.313,0,0,1-.16-.308.318.318,0,0,1,.218-.271c.525-.165,5.142-1.58,6.451-.482a1.079,1.079,0,0,1,.361,1.028,1.791,1.791,0,0,1-.961,1.476A2.408,2.408,0,0,1,145.041,378.225Zm-3.833-1.859c2.118,1.077,3.821,1.474,4.641,1.067a1.19,1.19,0,0,0,.619-1,.447.447,0,0,0-.145-.457C145.636,375.4,143.076,375.853,141.208,376.366Z" transform="translate(1048.245 276.474)" fill="#263238"/>
    <path id="Path_102" data-name="Path 102" d="M140.378,378.153a.315.315,0,0,1-.305-.4c.044-.157,1.108-3.858,2.858-4.7a1.649,1.649,0,0,1,1.4-.043,1.1,1.1,0,0,1,.784,1.14c-.119,1.532-3.242,3.649-4.666,4A.361.361,0,0,1,140.378,378.153Zm3.3-4.648a1.1,1.1,0,0,0-.475.116c-1.043.5-1.919,2.5-2.337,3.715,1.5-.632,3.547-2.3,3.62-3.238.012-.152-.022-.349-.4-.506A1.038,1.038,0,0,0,143.681,373.505Z" transform="translate(1048.246 274.917)" fill="#263238"/>
    <path id="Path_103" data-name="Path 103" d="M159.809,383.115c-1.919,0-4.595-2.466-6.059-3.981a.32.32,0,0,1-.056-.363.344.344,0,0,1,.322-.174c.675.089,6.6.888,7.441,2.563a1.025,1.025,0,0,1-.039,1,1.757,1.757,0,0,1-1.35.943A2.157,2.157,0,0,1,159.809,383.115Zm-4.937-3.753c2.154,2.093,4.037,3.252,5.118,3.109a1.141,1.141,0,0,0,.878-.627.391.391,0,0,0,.022-.4C160.434,380.531,157.269,379.747,154.871,379.362Z" transform="translate(1057.823 278.948)" fill="#263238"/>
    <path id="Path_104" data-name="Path 104" d="M155.059,380.542a6.44,6.44,0,0,1-1.14-.085.317.317,0,0,1-.186-.513c.1-.118,2.4-2.9,4.581-3.09a2.3,2.3,0,0,1,1.754.552c.67.574.624,1.086.467,1.411C159.994,379.954,157.049,380.542,155.059,380.542Zm-.44-.639c1.9.106,4.948-.527,5.345-1.357.034-.07.135-.281-.307-.658a1.66,1.66,0,0,0-1.285-.4C156.94,377.612,155.343,379.129,154.619,379.9Z" transform="translate(1057.823 277.716)" fill="#263238"/>
    <path id="Path_105" data-name="Path 105" d="M149.106,376.625l-14.454-4.087a1.061,1.061,0,0,0-1.276.59L128.5,384.1a2.149,2.149,0,0,0,1.416,2.872c5.065,1.338,7.577,1.728,13.933,3.524,3.911,1.106,9.51,3.127,14.911,4.654,5.282,1.493,7.2-3.732,5.086-4.852-9.471-5.019-10.217-8.46-12.808-12.273A3.488,3.488,0,0,0,149.106,376.625Z" transform="translate(1039.983 274.653)" fill="#263238"/>
    <path id="Path_106" data-name="Path 106" d="M163.22,381.366,150.881,372.8a1.057,1.057,0,0,0-1.4.143l-8.184,8.786a2.147,2.147,0,0,0,.406,3.175c4.353,2.913,6.6,4.1,12.027,7.867,3.339,2.318,10,7.46,14.613,10.66,4.51,3.129,8.02-1.188,6.388-2.933-7.322-7.828-8.937-12.733-10.146-17.181A3.5,3.5,0,0,0,163.22,381.366Z" transform="translate(1048.747 274.726)" fill="#263238"/>
    <path id="Path_107" data-name="Path 107" d="M157.27,375.494l-22.251-11.059,2.3-6.021,23.75,11.643Z" transform="translate(1044.694 264.735)" fill="#2062f8"/>
    <g id="Group_12" data-name="Group 12" transform="translate(1171.113 431.357)">
      <path id="Path_108" data-name="Path 108" d="M131.9,246.286l-1.883,4.861c-.189.378.257.762.885.762h56.385c.489,0,.895-.239.925-.547l.489-4.861c.034-.337-.39-.622-.925-.622H132.785A.988.988,0,0,0,131.9,246.286Z" transform="translate(-129.973 -245.879)" fill="#407bff"/>
      <path id="Path_109" data-name="Path 109" d="M131.9,246.286l-1.883,4.861c-.189.378.257.762.885.762h56.385c.489,0,.895-.239.925-.547l.489-4.861c.034-.337-.39-.622-.925-.622H132.785A.988.988,0,0,0,131.9,246.286Z" transform="translate(-129.973 -245.879)" fill="#fff" opacity="0.4"/>
    </g>
    <g id="Group_13" data-name="Group 13" transform="translate(1179.938 430.926)">
      <path id="Path_110" data-name="Path 110" d="M137.121,252.614h-1.473c-.293,0-.516-.15-.5-.336l.69-6.314c.02-.186.278-.337.571-.337h1.472c.293,0,.516.152.5.337l-.69,6.314C137.671,252.464,137.414,252.614,137.121,252.614Z" transform="translate(-135.151 -245.626)" fill="#407bff"/>
      <path id="Path_111" data-name="Path 111" d="M157.529,252.614h-1.473c-.293,0-.516-.15-.5-.336l.692-6.314c.02-.186.276-.337.569-.337h1.473c.293,0,.518.152.5.337l-.692,6.314C158.079,252.464,157.822,252.614,157.529,252.614Z" transform="translate(-120.779 -245.626)" fill="#407bff"/>
    </g>
    <ellipse id="Ellipse_5" data-name="Ellipse 5" cx="45.66" cy="3.314" rx="45.66" ry="3.314" transform="translate(1134.951 719.926)" fill="#f5f5f5" style="mix-blend-mode: multiply;isolation: isolate"/>
    <ellipse id="Ellipse_45" data-name="Ellipse 45" cx="61.374" cy="6.456" rx="61.374" ry="6.456" transform="translate(1523.814 718.187)" fill="#f5f5f5" style="mix-blend-mode: multiply;isolation: isolate"/>
    <path id="Path_112" data-name="Path 112" d="M175.565,506.051c-8.078-2.345-16.97-5.367-22.471-8.581-.153-.089-.315-.153-.47-.233V460.715h16.249a4.864,4.864,0,0,0,0-9.728H152.624V284.267h-9.73v166.72H126.646a4.864,4.864,0,1,0,0,9.728h16.249v36.521c-.157.08-.317.145-.47.233-5.5,3.214-14.393,6.236-22.471,8.581a2.384,2.384,0,0,0,.668,4.673H174.9A2.384,2.384,0,0,0,175.565,506.051Z" transform="translate(1032.872 212.514)" fill="#e0e0e0"/>
    <g id="Group_17" data-name="Group 17" transform="translate(1141.496 479.818)">
      <rect id="Rectangle_5" data-name="Rectangle 5" width="78.269" height="35.676" rx="5.18" transform="translate(0)" fill="#407bff"/>
      <g id="Group_16" data-name="Group 16" transform="translate(8.271 35.676)">
        <path id="Path_113" data-name="Path 113" d="M117.448,295.247v3.1c0,2.556,2.781,4.648,6.183,4.648h49.361c3.4,0,6.183-2.091,6.183-4.648v-3.1Z" transform="translate(-117.448 -295.247)" fill="#407bff"/>
        <path id="Path_114" data-name="Path 114" d="M117.448,295.247v3.1c0,2.556,2.781,4.648,6.183,4.648h49.361c3.4,0,6.183-2.091,6.183-4.648v-3.1Z" transform="translate(-117.448 -295.247)" fill="#fff" opacity="0.3"/>
      </g>
    </g>
  </g>
</svg>
